<?xml version="1.0" encoding="UTF-8"?>
<svg width="120" height="48" xmlns="http://www.w3.org/2000/svg" shape-rendering="crispEdges">
  <rect x="0" y="0" width="4" height="4" fill="#0d0818"/>
  <rect x="4" y="0" width="4" height="4" fill="#0d0818"/>
  <rect x="8" y="0" width="4" height="4" fill="#0d0818"/>
  <rect x="12" y="0" width="4" height="4" fill="#0d0818"/>
  <rect x="16" y="0" width="4" height="4" fill="#0d0818"/>
  <rect x="20" y="0" width="4" height="4" fill="#0d0818"/>
  <rect x="24" y="0" width="4" height="4" fill="#0d0818"/>
  <rect x="28" y="0" width="4" height="4" fill="#0d0818"/>
  <rect x="32" y="0" width="4" height="4" fill="#0d0818"/>
  <rect x="36" y="0" width="4" height="4" fill="#0d0818"/>
  <rect x="40" y="0" width="4" height="4" fill="#0d0818"/>
  <rect x="44" y="0" width="4" height="4" fill="#0d0818"/>
  <rect x="48" y="0" width="4" height="4" fill="#0d0818"/>
  <rect x="52" y="0" width="4" height="4" fill="#0d0818"/>
  <rect x="56" y="0" width="4" height="4" fill="#0d0818"/>
  <rect x="60" y="0" width="4" height="4" fill="#0d0818"/>
  <rect x="64" y="0" width="4" height="4" fill="#0d0818"/>
  <rect x="68" y="0" width="4" height="4" fill="#0d0818"/>
  <rect x="72" y="0" width="4" height="4" fill="#0d0818"/>
  <rect x="76" y="0" width="4" height="4" fill="#0d0818"/>
  <rect x="80" y="0" width="4" height="4" fill="#0d0818"/>
  <rect x="84" y="0" width="4" height="4" fill="#0d0818"/>
  <rect x="88" y="0" width="4" height="4" fill="#0d0818"/>
  <rect x="92" y="0" width="4" height="4" fill="#0d0818"/>
  <rect x="96" y="0" width="4" height="4" fill="#0d0818"/>
  <rect x="100" y="0" width="4" height="4" fill="#0d0818"/>
  <rect x="104" y="0" width="4" height="4" fill="#0d0818"/>
  <rect x="108" y="0" width="4" height="4" fill="#0d0818"/>
  <rect x="112" y="0" width="4" height="4" fill="#0d0818"/>
  <rect x="116" y="0" width="4" height="4" fill="#0d0818"/>
  <rect x="0" y="4" width="4" height="4" fill="#0d0818"/>
  <rect x="4" y="4" width="4" height="4" fill="#3c2c66"/>
  <rect x="8" y="4" width="4" height="4" fill="#3c2c66"/>
  <rect x="12" y="4" width="4" height="4" fill="#3c2c66"/>
  <rect x="16" y="4" width="4" height="4" fill="#3c2c66"/>
  <rect x="20" y="4" width="4" height="4" fill="#3c2c66"/>
  <rect x="24" y="4" width="4" height="4" fill="#3c2c66"/>
  <rect x="28" y="4" width="4" height="4" fill="#3c2c66"/>
  <rect x="32" y="4" width="4" height="4" fill="#3c2c66"/>
  <rect x="36" y="4" width="4" height="4" fill="#3c2c66"/>
  <rect x="40" y="4" width="4" height="4" fill="#3c2c66"/>
  <rect x="44" y="4" width="4" height="4" fill="#3c2c66"/>
  <rect x="48" y="4" width="4" height="4" fill="#3c2c66"/>
  <rect x="52" y="4" width="4" height="4" fill="#3c2c66"/>
  <rect x="56" y="4" width="4" height="4" fill="#3c2c66"/>
  <rect x="60" y="4" width="4" height="4" fill="#3c2c66"/>
  <rect x="64" y="4" width="4" height="4" fill="#3c2c66"/>
  <rect x="68" y="4" width="4" height="4" fill="#3c2c66"/>
  <rect x="72" y="4" width="4" height="4" fill="#3c2c66"/>
  <rect x="76" y="4" width="4" height="4" fill="#3c2c66"/>
  <rect x="80" y="4" width="4" height="4" fill="#3c2c66"/>
  <rect x="84" y="4" width="4" height="4" fill="#3c2c66"/>
  <rect x="88" y="4" width="4" height="4" fill="#3c2c66"/>
  <rect x="92" y="4" width="4" height="4" fill="#3c2c66"/>
  <rect x="96" y="4" width="4" height="4" fill="#3c2c66"/>
  <rect x="100" y="4" width="4" height="4" fill="#3c2c66"/>
  <rect x="104" y="4" width="4" height="4" fill="#3c2c66"/>
  <rect x="108" y="4" width="4" height="4" fill="#3c2c66"/>
  <rect x="112" y="4" width="4" height="4" fill="#3c2c66"/>
  <rect x="116" y="4" width="4" height="4" fill="#0d0818"/>
  <rect x="0" y="8" width="4" height="4" fill="#0d0818"/>
  <rect x="4" y="8" width="4" height="4" fill="#3c2c66"/>
  <rect x="8" y="8" width="4" height="4" fill="#3c2c66"/>
  <rect x="12" y="8" width="4" height="4" fill="#3c2c66"/>
  <rect x="16" y="8" width="4" height="4" fill="#3c2c66"/>
  <rect x="20" y="8" width="4" height="4" fill="#3c2c66"/>
  <rect x="24" y="8" width="4" height="4" fill="#3c2c66"/>
  <rect x="28" y="8" width="4" height="4" fill="#3c2c66"/>
  <rect x="32" y="8" width="4" height="4" fill="#3c2c66"/>
  <rect x="36" y="8" width="4" height="4" fill="#3c2c66"/>
  <rect x="40" y="8" width="4" height="4" fill="#3c2c66"/>
  <rect x="44" y="8" width="4" height="4" fill="#3c2c66"/>
  <rect x="48" y="8" width="4" height="4" fill="#3c2c66"/>
  <rect x="52" y="8" width="4" height="4" fill="#3c2c66"/>
  <rect x="56" y="8" width="4" height="4" fill="#3c2c66"/>
  <rect x="60" y="8" width="4" height="4" fill="#3c2c66"/>
  <rect x="64" y="8" width="4" height="4" fill="#3c2c66"/>
  <rect x="68" y="8" width="4" height="4" fill="#3c2c66"/>
  <rect x="72" y="8" width="4" height="4" fill="#3c2c66"/>
  <rect x="76" y="8" width="4" height="4" fill="#3c2c66"/>
  <rect x="80" y="8" width="4" height="4" fill="#3c2c66"/>
  <rect x="84" y="8" width="4" height="4" fill="#3c2c66"/>
  <rect x="88" y="8" width="4" height="4" fill="#3c2c66"/>
  <rect x="92" y="8" width="4" height="4" fill="#3c2c66"/>
  <rect x="96" y="8" width="4" height="4" fill="#3c2c66"/>
  <rect x="100" y="8" width="4" height="4" fill="#3c2c66"/>
  <rect x="104" y="8" width="4" height="4" fill="#3c2c66"/>
  <rect x="108" y="8" width="4" height="4" fill="#3c2c66"/>
  <rect x="112" y="8" width="4" height="4" fill="#3c2c66"/>
  <rect x="116" y="8" width="4" height="4" fill="#0d0818"/>
  <rect x="0" y="12" width="4" height="4" fill="#0d0818"/>
  <rect x="4" y="12" width="4" height="4" fill="#3c2c66"/>
  <rect x="8" y="12" width="4" height="4" fill="#3c2c66"/>
  <rect x="12" y="12" width="4" height="4" fill="#3c2c66"/>
  <rect x="16" y="12" width="4" height="4" fill="#3c2c66"/>
  <rect x="20" y="12" width="4" height="4" fill="#3c2c66"/>
  <rect x="24" y="12" width="4" height="4" fill="#3c2c66"/>
  <rect x="28" y="12" width="4" height="4" fill="#3c2c66"/>
  <rect x="32" y="12" width="4" height="4" fill="#3c2c66"/>
  <rect x="36" y="12" width="4" height="4" fill="#3c2c66"/>
  <rect x="40" y="12" width="4" height="4" fill="#3c2c66"/>
  <rect x="44" y="12" width="4" height="4" fill="#3c2c66"/>
  <rect x="48" y="12" width="4" height="4" fill="#3c2c66"/>
  <rect x="52" y="12" width="4" height="4" fill="#3c2c66"/>
  <rect x="56" y="12" width="4" height="4" fill="#3c2c66"/>
  <rect x="60" y="12" width="4" height="4" fill="#3c2c66"/>
  <rect x="64" y="12" width="4" height="4" fill="#3c2c66"/>
  <rect x="68" y="12" width="4" height="4" fill="#3c2c66"/>
  <rect x="72" y="12" width="4" height="4" fill="#3c2c66"/>
  <rect x="76" y="12" width="4" height="4" fill="#3c2c66"/>
  <rect x="80" y="12" width="4" height="4" fill="#3c2c66"/>
  <rect x="84" y="12" width="4" height="4" fill="#3c2c66"/>
  <rect x="88" y="12" width="4" height="4" fill="#3c2c66"/>
  <rect x="92" y="12" width="4" height="4" fill="#3c2c66"/>
  <rect x="96" y="12" width="4" height="4" fill="#3c2c66"/>
  <rect x="100" y="12" width="4" height="4" fill="#3c2c66"/>
  <rect x="104" y="12" width="4" height="4" fill="#3c2c66"/>
  <rect x="108" y="12" width="4" height="4" fill="#3c2c66"/>
  <rect x="112" y="12" width="4" height="4" fill="#3c2c66"/>
  <rect x="116" y="12" width="4" height="4" fill="#0d0818"/>
  <rect x="0" y="16" width="4" height="4" fill="#0d0818"/>
  <rect x="4" y="16" width="4" height="4" fill="#1f1740"/>
  <rect x="8" y="16" width="4" height="4" fill="#1f1740"/>
  <rect x="12" y="16" width="4" height="4" fill="#1f1740"/>
  <rect x="16" y="16" width="4" height="4" fill="#1f1740"/>
  <rect x="20" y="16" width="4" height="4" fill="#1f1740"/>
  <rect x="24" y="16" width="4" height="4" fill="#1f1740"/>
  <rect x="28" y="16" width="4" height="4" fill="#1f1740"/>
  <rect x="32" y="16" width="4" height="4" fill="#1f1740"/>
  <rect x="36" y="16" width="4" height="4" fill="#1f1740"/>
  <rect x="40" y="16" width="4" height="4" fill="#1f1740"/>
  <rect x="44" y="16" width="4" height="4" fill="#1f1740"/>
  <rect x="48" y="16" width="4" height="4" fill="#1f1740"/>
  <rect x="52" y="16" width="4" height="4" fill="#1f1740"/>
  <rect x="56" y="16" width="4" height="4" fill="#1f1740"/>
  <rect x="60" y="16" width="4" height="4" fill="#1f1740"/>
  <rect x="64" y="16" width="4" height="4" fill="#1f1740"/>
  <rect x="68" y="16" width="4" height="4" fill="#1f1740"/>
  <rect x="72" y="16" width="4" height="4" fill="#1f1740"/>
  <rect x="76" y="16" width="4" height="4" fill="#1f1740"/>
  <rect x="80" y="16" width="4" height="4" fill="#1f1740"/>
  <rect x="84" y="16" width="4" height="4" fill="#1f1740"/>
  <rect x="88" y="16" width="4" height="4" fill="#1f1740"/>
  <rect x="92" y="16" width="4" height="4" fill="#1f1740"/>
  <rect x="96" y="16" width="4" height="4" fill="#1f1740"/>
  <rect x="100" y="16" width="4" height="4" fill="#1f1740"/>
  <rect x="104" y="16" width="4" height="4" fill="#1f1740"/>
  <rect x="108" y="16" width="4" height="4" fill="#1f1740"/>
  <rect x="112" y="16" width="4" height="4" fill="#1f1740"/>
  <rect x="116" y="16" width="4" height="4" fill="#0d0818"/>
  <rect x="0" y="20" width="4" height="4" fill="#0d0818"/>
  <rect x="4" y="20" width="4" height="4" fill="#1f1740"/>
  <rect x="8" y="20" width="4" height="4" fill="#1f1740"/>
  <rect x="12" y="20" width="4" height="4" fill="#1f1740"/>
  <rect x="16" y="20" width="4" height="4" fill="#1f1740"/>
  <rect x="20" y="20" width="4" height="4" fill="#1f1740"/>
  <rect x="24" y="20" width="4" height="4" fill="#1f1740"/>
  <rect x="28" y="20" width="4" height="4" fill="#1f1740"/>
  <rect x="32" y="20" width="4" height="4" fill="#1f1740"/>
  <rect x="36" y="20" width="4" height="4" fill="#1f1740"/>
  <rect x="40" y="20" width="4" height="4" fill="#1f1740"/>
  <rect x="44" y="20" width="4" height="4" fill="#1f1740"/>
  <rect x="48" y="20" width="4" height="4" fill="#1f1740"/>
  <rect x="52" y="20" width="4" height="4" fill="#1f1740"/>
  <rect x="56" y="20" width="4" height="4" fill="#1f1740"/>
  <rect x="60" y="20" width="4" height="4" fill="#1f1740"/>
  <rect x="64" y="20" width="4" height="4" fill="#1f1740"/>
  <rect x="68" y="20" width="4" height="4" fill="#1f1740"/>
  <rect x="72" y="20" width="4" height="4" fill="#1f1740"/>
  <rect x="76" y="20" width="4" height="4" fill="#1f1740"/>
  <rect x="80" y="20" width="4" height="4" fill="#1f1740"/>
  <rect x="84" y="20" width="4" height="4" fill="#1f1740"/>
  <rect x="88" y="20" width="4" height="4" fill="#1f1740"/>
  <rect x="92" y="20" width="4" height="4" fill="#1f1740"/>
  <rect x="96" y="20" width="4" height="4" fill="#1f1740"/>
  <rect x="100" y="20" width="4" height="4" fill="#1f1740"/>
  <rect x="104" y="20" width="4" height="4" fill="#1f1740"/>
  <rect x="108" y="20" width="4" height="4" fill="#1f1740"/>
  <rect x="112" y="20" width="4" height="4" fill="#1f1740"/>
  <rect x="116" y="20" width="4" height="4" fill="#0d0818"/>
  <rect x="0" y="24" width="4" height="4" fill="#0d0818"/>
  <rect x="4" y="24" width="4" height="4" fill="#1f1740"/>
  <rect x="8" y="24" width="4" height="4" fill="#1f1740"/>
  <rect x="12" y="24" width="4" height="4" fill="#1f1740"/>
  <rect x="16" y="24" width="4" height="4" fill="#1f1740"/>
  <rect x="20" y="24" width="4" height="4" fill="#1f1740"/>
  <rect x="24" y="24" width="4" height="4" fill="#1f1740"/>
  <rect x="28" y="24" width="4" height="4" fill="#1f1740"/>
  <rect x="32" y="24" width="4" height="4" fill="#1f1740"/>
  <rect x="36" y="24" width="4" height="4" fill="#1f1740"/>
  <rect x="40" y="24" width="4" height="4" fill="#1f1740"/>
  <rect x="44" y="24" width="4" height="4" fill="#1f1740"/>
  <rect x="48" y="24" width="4" height="4" fill="#1f1740"/>
  <rect x="52" y="24" width="4" height="4" fill="#1f1740"/>
  <rect x="56" y="24" width="4" height="4" fill="#1f1740"/>
  <rect x="60" y="24" width="4" height="4" fill="#1f1740"/>
  <rect x="64" y="24" width="4" height="4" fill="#1f1740"/>
  <rect x="68" y="24" width="4" height="4" fill="#1f1740"/>
  <rect x="72" y="24" width="4" height="4" fill="#1f1740"/>
  <rect x="76" y="24" width="4" height="4" fill="#1f1740"/>
  <rect x="80" y="24" width="4" height="4" fill="#1f1740"/>
  <rect x="84" y="24" width="4" height="4" fill="#1f1740"/>
  <rect x="88" y="24" width="4" height="4" fill="#1f1740"/>
  <rect x="92" y="24" width="4" height="4" fill="#1f1740"/>
  <rect x="96" y="24" width="4" height="4" fill="#1f1740"/>
  <rect x="100" y="24" width="4" height="4" fill="#1f1740"/>
  <rect x="104" y="24" width="4" height="4" fill="#1f1740"/>
  <rect x="108" y="24" width="4" height="4" fill="#1f1740"/>
  <rect x="112" y="24" width="4" height="4" fill="#1f1740"/>
  <rect x="116" y="24" width="4" height="4" fill="#0d0818"/>
  <rect x="0" y="28" width="4" height="4" fill="#0d0818"/>
  <rect x="4" y="28" width="4" height="4" fill="#1f1740"/>
  <rect x="8" y="28" width="4" height="4" fill="#1f1740"/>
  <rect x="12" y="28" width="4" height="4" fill="#1f1740"/>
  <rect x="16" y="28" width="4" height="4" fill="#1f1740"/>
  <rect x="20" y="28" width="4" height="4" fill="#1f1740"/>
  <rect x="24" y="28" width="4" height="4" fill="#1f1740"/>
  <rect x="28" y="28" width="4" height="4" fill="#1f1740"/>
  <rect x="32" y="28" width="4" height="4" fill="#1f1740"/>
  <rect x="36" y="28" width="4" height="4" fill="#1f1740"/>
  <rect x="40" y="28" width="4" height="4" fill="#1f1740"/>
  <rect x="44" y="28" width="4" height="4" fill="#1f1740"/>
  <rect x="48" y="28" width="4" height="4" fill="#1f1740"/>
  <rect x="52" y="28" width="4" height="4" fill="#1f1740"/>
  <rect x="56" y="28" width="4" height="4" fill="#1f1740"/>
  <rect x="60" y="28" width="4" height="4" fill="#1f1740"/>
  <rect x="64" y="28" width="4" height="4" fill="#1f1740"/>
  <rect x="68" y="28" width="4" height="4" fill="#1f1740"/>
  <rect x="72" y="28" width="4" height="4" fill="#1f1740"/>
  <rect x="76" y="28" width="4" height="4" fill="#1f1740"/>
  <rect x="80" y="28" width="4" height="4" fill="#1f1740"/>
  <rect x="84" y="28" width="4" height="4" fill="#1f1740"/>
  <rect x="88" y="28" width="4" height="4" fill="#1f1740"/>
  <rect x="92" y="28" width="4" height="4" fill="#1f1740"/>
  <rect x="96" y="28" width="4" height="4" fill="#1f1740"/>
  <rect x="100" y="28" width="4" height="4" fill="#1f1740"/>
  <rect x="104" y="28" width="4" height="4" fill="#1f1740"/>
  <rect x="108" y="28" width="4" height="4" fill="#1f1740"/>
  <rect x="112" y="28" width="4" height="4" fill="#1f1740"/>
  <rect x="116" y="28" width="4" height="4" fill="#0d0818"/>
  <rect x="0" y="32" width="4" height="4" fill="#0d0818"/>
  <rect x="4" y="32" width="4" height="4" fill="#0c081d"/>
  <rect x="8" y="32" width="4" height="4" fill="#0c081d"/>
  <rect x="12" y="32" width="4" height="4" fill="#0c081d"/>
  <rect x="16" y="32" width="4" height="4" fill="#0c081d"/>
  <rect x="20" y="32" width="4" height="4" fill="#0c081d"/>
  <rect x="24" y="32" width="4" height="4" fill="#0c081d"/>
  <rect x="28" y="32" width="4" height="4" fill="#0c081d"/>
  <rect x="32" y="32" width="4" height="4" fill="#0c081d"/>
  <rect x="36" y="32" width="4" height="4" fill="#0c081d"/>
  <rect x="40" y="32" width="4" height="4" fill="#0c081d"/>
  <rect x="44" y="32" width="4" height="4" fill="#0c081d"/>
  <rect x="48" y="32" width="4" height="4" fill="#0c081d"/>
  <rect x="52" y="32" width="4" height="4" fill="#0c081d"/>
  <rect x="56" y="32" width="4" height="4" fill="#0c081d"/>
  <rect x="60" y="32" width="4" height="4" fill="#0c081d"/>
  <rect x="64" y="32" width="4" height="4" fill="#0c081d"/>
  <rect x="68" y="32" width="4" height="4" fill="#0c081d"/>
  <rect x="72" y="32" width="4" height="4" fill="#0c081d"/>
  <rect x="76" y="32" width="4" height="4" fill="#0c081d"/>
  <rect x="80" y="32" width="4" height="4" fill="#0c081d"/>
  <rect x="84" y="32" width="4" height="4" fill="#0c081d"/>
  <rect x="88" y="32" width="4" height="4" fill="#0c081d"/>
  <rect x="92" y="32" width="4" height="4" fill="#0c081d"/>
  <rect x="96" y="32" width="4" height="4" fill="#0c081d"/>
  <rect x="100" y="32" width="4" height="4" fill="#0c081d"/>
  <rect x="104" y="32" width="4" height="4" fill="#0c081d"/>
  <rect x="108" y="32" width="4" height="4" fill="#0c081d"/>
  <rect x="112" y="32" width="4" height="4" fill="#0c081d"/>
  <rect x="116" y="32" width="4" height="4" fill="#0d0818"/>
  <rect x="0" y="36" width="4" height="4" fill="#0d0818"/>
  <rect x="4" y="36" width="4" height="4" fill="#0c081d"/>
  <rect x="8" y="36" width="4" height="4" fill="#0c081d"/>
  <rect x="12" y="36" width="4" height="4" fill="#0c081d"/>
  <rect x="16" y="36" width="4" height="4" fill="#0c081d"/>
  <rect x="20" y="36" width="4" height="4" fill="#0c081d"/>
  <rect x="24" y="36" width="4" height="4" fill="#0c081d"/>
  <rect x="28" y="36" width="4" height="4" fill="#0c081d"/>
  <rect x="32" y="36" width="4" height="4" fill="#0c081d"/>
  <rect x="36" y="36" width="4" height="4" fill="#0c081d"/>
  <rect x="40" y="36" width="4" height="4" fill="#0c081d"/>
  <rect x="44" y="36" width="4" height="4" fill="#0c081d"/>
  <rect x="48" y="36" width="4" height="4" fill="#0c081d"/>
  <rect x="52" y="36" width="4" height="4" fill="#0c081d"/>
  <rect x="56" y="36" width="4" height="4" fill="#0c081d"/>
  <rect x="60" y="36" width="4" height="4" fill="#0c081d"/>
  <rect x="64" y="36" width="4" height="4" fill="#0c081d"/>
  <rect x="68" y="36" width="4" height="4" fill="#0c081d"/>
  <rect x="72" y="36" width="4" height="4" fill="#0c081d"/>
  <rect x="76" y="36" width="4" height="4" fill="#0c081d"/>
  <rect x="80" y="36" width="4" height="4" fill="#0c081d"/>
  <rect x="84" y="36" width="4" height="4" fill="#0c081d"/>
  <rect x="88" y="36" width="4" height="4" fill="#0c081d"/>
  <rect x="92" y="36" width="4" height="4" fill="#0c081d"/>
  <rect x="96" y="36" width="4" height="4" fill="#0c081d"/>
  <rect x="100" y="36" width="4" height="4" fill="#0c081d"/>
  <rect x="104" y="36" width="4" height="4" fill="#0c081d"/>
  <rect x="108" y="36" width="4" height="4" fill="#0c081d"/>
  <rect x="112" y="36" width="4" height="4" fill="#0c081d"/>
  <rect x="116" y="36" width="4" height="4" fill="#0d0818"/>
  <rect x="0" y="40" width="4" height="4" fill="#0d0818"/>
  <rect x="4" y="40" width="4" height="4" fill="#0c081d"/>
  <rect x="8" y="40" width="4" height="4" fill="#0c081d"/>
  <rect x="12" y="40" width="4" height="4" fill="#0c081d"/>
  <rect x="16" y="40" width="4" height="4" fill="#0c081d"/>
  <rect x="20" y="40" width="4" height="4" fill="#0c081d"/>
  <rect x="24" y="40" width="4" height="4" fill="#0c081d"/>
  <rect x="28" y="40" width="4" height="4" fill="#0c081d"/>
  <rect x="32" y="40" width="4" height="4" fill="#0c081d"/>
  <rect x="36" y="40" width="4" height="4" fill="#0c081d"/>
  <rect x="40" y="40" width="4" height="4" fill="#0c081d"/>
  <rect x="44" y="40" width="4" height="4" fill="#0c081d"/>
  <rect x="48" y="40" width="4" height="4" fill="#0c081d"/>
  <rect x="52" y="40" width="4" height="4" fill="#0c081d"/>
  <rect x="56" y="40" width="4" height="4" fill="#0c081d"/>
  <rect x="60" y="40" width="4" height="4" fill="#0c081d"/>
  <rect x="64" y="40" width="4" height="4" fill="#0c081d"/>
  <rect x="68" y="40" width="4" height="4" fill="#0c081d"/>
  <rect x="72" y="40" width="4" height="4" fill="#0c081d"/>
  <rect x="76" y="40" width="4" height="4" fill="#0c081d"/>
  <rect x="80" y="40" width="4" height="4" fill="#0c081d"/>
  <rect x="84" y="40" width="4" height="4" fill="#0c081d"/>
  <rect x="88" y="40" width="4" height="4" fill="#0c081d"/>
  <rect x="92" y="40" width="4" height="4" fill="#0c081d"/>
  <rect x="96" y="40" width="4" height="4" fill="#0c081d"/>
  <rect x="100" y="40" width="4" height="4" fill="#0c081d"/>
  <rect x="104" y="40" width="4" height="4" fill="#0c081d"/>
  <rect x="108" y="40" width="4" height="4" fill="#0c081d"/>
  <rect x="112" y="40" width="4" height="4" fill="#0c081d"/>
  <rect x="116" y="40" width="4" height="4" fill="#0d0818"/>
  <rect x="0" y="44" width="4" height="4" fill="#0d0818"/>
  <rect x="4" y="44" width="4" height="4" fill="#0d0818"/>
  <rect x="8" y="44" width="4" height="4" fill="#0d0818"/>
  <rect x="12" y="44" width="4" height="4" fill="#0d0818"/>
  <rect x="16" y="44" width="4" height="4" fill="#0d0818"/>
  <rect x="20" y="44" width="4" height="4" fill="#0d0818"/>
  <rect x="24" y="44" width="4" height="4" fill="#0d0818"/>
  <rect x="28" y="44" width="4" height="4" fill="#0d0818"/>
  <rect x="32" y="44" width="4" height="4" fill="#0d0818"/>
  <rect x="36" y="44" width="4" height="4" fill="#0d0818"/>
  <rect x="40" y="44" width="4" height="4" fill="#0d0818"/>
  <rect x="44" y="44" width="4" height="4" fill="#0d0818"/>
  <rect x="48" y="44" width="4" height="4" fill="#0d0818"/>
  <rect x="52" y="44" width="4" height="4" fill="#0d0818"/>
  <rect x="56" y="44" width="4" height="4" fill="#0d0818"/>
  <rect x="60" y="44" width="4" height="4" fill="#0d0818"/>
  <rect x="64" y="44" width="4" height="4" fill="#0d0818"/>
  <rect x="68" y="44" width="4" height="4" fill="#0d0818"/>
  <rect x="72" y="44" width="4" height="4" fill="#0d0818"/>
  <rect x="76" y="44" width="4" height="4" fill="#0d0818"/>
  <rect x="80" y="44" width="4" height="4" fill="#0d0818"/>
  <rect x="84" y="44" width="4" height="4" fill="#0d0818"/>
  <rect x="88" y="44" width="4" height="4" fill="#0d0818"/>
  <rect x="92" y="44" width="4" height="4" fill="#0d0818"/>
  <rect x="96" y="44" width="4" height="4" fill="#0d0818"/>
  <rect x="100" y="44" width="4" height="4" fill="#0d0818"/>
  <rect x="104" y="44" width="4" height="4" fill="#0d0818"/>
  <rect x="108" y="44" width="4" height="4" fill="#0d0818"/>
  <rect x="112" y="44" width="4" height="4" fill="#0d0818"/>
  <rect x="116" y="44" width="4" height="4" fill="#0d0818"/>
</svg>
