<?xml version="1.0" encoding="UTF-8"?>
<svg width="48" height="48" xmlns="http://www.w3.org/2000/svg" shape-rendering="crispEdges">
  <rect x="24" y="6" width="6" height="6" fill="#8cd2ff"/>
  <rect x="18" y="12" width="6" height="6" fill="#8cd2ff"/>
  <rect x="24" y="12" width="6" height="6" fill="#8cd2ff"/>
  <rect x="30" y="12" width="6" height="6" fill="#8cd2ff"/>
  <rect x="12" y="18" width="6" height="6" fill="#8cd2ff"/>
  <rect x="18" y="18" width="6" height="6" fill="#8cd2ff"/>
  <rect x="24" y="18" width="6" height="6" fill="#5f8bfd"/>
  <rect x="30" y="18" width="6" height="6" fill="#8cd2ff"/>
  <rect x="36" y="18" width="6" height="6" fill="#8cd2ff"/>
  <rect x="18" y="24" width="6" height="6" fill="#5f8bfd"/>
  <rect x="24" y="24" width="6" height="6" fill="#5f8bfd"/>
  <rect x="30" y="24" width="6" height="6" fill="#5f8bfd"/>
  <rect x="12" y="30" width="6" height="6" fill="#5f8bfd"/>
  <rect x="18" y="30" width="6" height="6" fill="#5f8bfd"/>
  <rect x="24" y="30" width="6" height="6" fill="#5f8bfd"/>
  <rect x="30" y="30" width="6" height="6" fill="#5f8bfd"/>
  <rect x="36" y="30" width="6" height="6" fill="#5f8bfd"/>
  <rect x="18" y="36" width="6" height="6" fill="#5f8bfd"/>
  <rect x="24" y="36" width="6" height="6" fill="#5f8bfd"/>
  <rect x="30" y="36" width="6" height="6" fill="#5f8bfd"/>
  <rect x="24" y="42" width="6" height="6" fill="#5f8bfd"/>
</svg>
