<?xml version="1.0" encoding="UTF-8"?>
<svg width="128" height="128" xmlns="http://www.w3.org/2000/svg" shape-rendering="crispEdges">
  <rect x="48" y="24" width="4" height="4" fill="#120d25"/>
  <rect x="52" y="24" width="4" height="4" fill="#120d25"/>
  <rect x="56" y="24" width="4" height="4" fill="#120d25"/>
  <rect x="60" y="24" width="4" height="4" fill="#120d25"/>
  <rect x="64" y="24" width="4" height="4" fill="#120d25"/>
  <rect x="68" y="24" width="4" height="4" fill="#120d25"/>
  <rect x="72" y="24" width="4" height="4" fill="#120d25"/>
  <rect x="76" y="24" width="4" height="4" fill="#120d25"/>
  <rect x="48" y="28" width="4" height="4" fill="#120d25"/>
  <rect x="52" y="28" width="4" height="4" fill="#120d25"/>
  <rect x="56" y="28" width="4" height="4" fill="#120d25"/>
  <rect x="60" y="28" width="4" height="4" fill="#120d25"/>
  <rect x="64" y="28" width="4" height="4" fill="#120d25"/>
  <rect x="68" y="28" width="4" height="4" fill="#120d25"/>
  <rect x="72" y="28" width="4" height="4" fill="#120d25"/>
  <rect x="76" y="28" width="4" height="4" fill="#120d25"/>
  <rect x="48" y="32" width="4" height="4" fill="#120d25"/>
  <rect x="52" y="32" width="4" height="4" fill="#120d25"/>
  <rect x="56" y="32" width="4" height="4" fill="#120d25"/>
  <rect x="60" y="32" width="4" height="4" fill="#120d25"/>
  <rect x="64" y="32" width="4" height="4" fill="#120d25"/>
  <rect x="68" y="32" width="4" height="4" fill="#120d25"/>
  <rect x="72" y="32" width="4" height="4" fill="#120d25"/>
  <rect x="76" y="32" width="4" height="4" fill="#120d25"/>
  <rect x="48" y="36" width="4" height="4" fill="#120d25"/>
  <rect x="52" y="36" width="4" height="4" fill="#120d25"/>
  <rect x="56" y="36" width="4" height="4" fill="#120d25"/>
  <rect x="60" y="36" width="4" height="4" fill="#120d25"/>
  <rect x="64" y="36" width="4" height="4" fill="#120d25"/>
  <rect x="68" y="36" width="4" height="4" fill="#120d25"/>
  <rect x="72" y="36" width="4" height="4" fill="#120d25"/>
  <rect x="76" y="36" width="4" height="4" fill="#120d25"/>
  <rect x="48" y="40" width="4" height="4" fill="#120d25"/>
  <rect x="52" y="40" width="4" height="4" fill="#120d25"/>
  <rect x="56" y="40" width="4" height="4" fill="#120d25"/>
  <rect x="60" y="40" width="4" height="4" fill="#120d25"/>
  <rect x="64" y="40" width="4" height="4" fill="#120d25"/>
  <rect x="68" y="40" width="4" height="4" fill="#120d25"/>
  <rect x="72" y="40" width="4" height="4" fill="#120d25"/>
  <rect x="76" y="40" width="4" height="4" fill="#120d25"/>
  <rect x="48" y="44" width="4" height="4" fill="#120d25"/>
  <rect x="52" y="44" width="4" height="4" fill="#120d25"/>
  <rect x="56" y="44" width="4" height="4" fill="#120d25"/>
  <rect x="60" y="44" width="4" height="4" fill="#120d25"/>
  <rect x="64" y="44" width="4" height="4" fill="#120d25"/>
  <rect x="68" y="44" width="4" height="4" fill="#120d25"/>
  <rect x="72" y="44" width="4" height="4" fill="#120d25"/>
  <rect x="76" y="44" width="4" height="4" fill="#120d25"/>
  <rect x="52" y="48" width="4" height="4" fill="#ca9f7d"/>
  <rect x="56" y="48" width="4" height="4" fill="#ca9f7d"/>
  <rect x="60" y="48" width="4" height="4" fill="#ca9f7d"/>
  <rect x="64" y="48" width="4" height="4" fill="#ca9f7d"/>
  <rect x="68" y="48" width="4" height="4" fill="#ca9f7d"/>
  <rect x="72" y="48" width="4" height="4" fill="#ca9f7d"/>
  <rect x="52" y="52" width="4" height="4" fill="#ca9f7d"/>
  <rect x="56" y="52" width="4" height="4" fill="#ca9f7d"/>
  <rect x="60" y="52" width="4" height="4" fill="#ca9f7d"/>
  <rect x="64" y="52" width="4" height="4" fill="#ca9f7d"/>
  <rect x="68" y="52" width="4" height="4" fill="#ca9f7d"/>
  <rect x="72" y="52" width="4" height="4" fill="#ca9f7d"/>
  <rect x="48" y="56" width="4" height="4" fill="#ca9f7d"/>
  <rect x="52" y="56" width="4" height="4" fill="#ca9f7d"/>
  <rect x="56" y="56" width="4" height="4" fill="#ca9f7d"/>
  <rect x="60" y="56" width="4" height="4" fill="#05040b"/>
  <rect x="64" y="56" width="4" height="4" fill="#ca9f7d"/>
  <rect x="68" y="56" width="4" height="4" fill="#05040b"/>
  <rect x="72" y="56" width="4" height="4" fill="#ca9f7d"/>
  <rect x="76" y="56" width="4" height="4" fill="#ca9f7d"/>
  <rect x="48" y="60" width="4" height="4" fill="#ca9f7d"/>
  <rect x="52" y="60" width="4" height="4" fill="#ca9f7d"/>
  <rect x="56" y="60" width="4" height="4" fill="#ca9f7d"/>
  <rect x="60" y="60" width="4" height="4" fill="#ca9f7d"/>
  <rect x="64" y="60" width="4" height="4" fill="#ca9f7d"/>
  <rect x="68" y="60" width="4" height="4" fill="#ca9f7d"/>
  <rect x="72" y="60" width="4" height="4" fill="#ca9f7d"/>
  <rect x="76" y="60" width="4" height="4" fill="#ca9f7d"/>
  <rect x="52" y="64" width="4" height="4" fill="#ca9f7d"/>
  <rect x="56" y="64" width="4" height="4" fill="#ca9f7d"/>
  <rect x="60" y="64" width="4" height="4" fill="#ca9f7d"/>
  <rect x="64" y="64" width="4" height="4" fill="#ca9f7d"/>
  <rect x="68" y="64" width="4" height="4" fill="#ca9f7d"/>
  <rect x="72" y="64" width="4" height="4" fill="#ca9f7d"/>
  <rect x="52" y="68" width="4" height="4" fill="#ca9f7d"/>
  <rect x="56" y="68" width="4" height="4" fill="#ca9f7d"/>
  <rect x="60" y="68" width="4" height="4" fill="#ca9f7d"/>
  <rect x="64" y="68" width="4" height="4" fill="#ca9f7d"/>
  <rect x="68" y="68" width="4" height="4" fill="#ca9f7d"/>
  <rect x="72" y="68" width="4" height="4" fill="#ca9f7d"/>
  <rect x="52" y="72" width="4" height="4" fill="#9bde3c"/>
  <rect x="56" y="72" width="4" height="4" fill="#9bde3c"/>
  <rect x="60" y="72" width="4" height="4" fill="#9bde3c"/>
  <rect x="64" y="72" width="4" height="4" fill="#9bde3c"/>
  <rect x="68" y="72" width="4" height="4" fill="#9bde3c"/>
  <rect x="72" y="72" width="4" height="4" fill="#9bde3c"/>
  <rect x="52" y="76" width="4" height="4" fill="#9bde3c"/>
  <rect x="56" y="76" width="4" height="4" fill="#9bde3c"/>
  <rect x="60" y="76" width="4" height="4" fill="#9bde3c"/>
  <rect x="64" y="76" width="4" height="4" fill="#9bde3c"/>
  <rect x="68" y="76" width="4" height="4" fill="#9bde3c"/>
  <rect x="72" y="76" width="4" height="4" fill="#9bde3c"/>
  <rect x="52" y="80" width="4" height="4" fill="#5a7c1f"/>
  <rect x="56" y="80" width="4" height="4" fill="#5a7c1f"/>
  <rect x="60" y="80" width="4" height="4" fill="#5a7c1f"/>
  <rect x="64" y="80" width="4" height="4" fill="#5a7c1f"/>
  <rect x="68" y="80" width="4" height="4" fill="#5a7c1f"/>
  <rect x="72" y="80" width="4" height="4" fill="#5a7c1f"/>
  <rect x="52" y="84" width="4" height="4" fill="#5a7c1f"/>
  <rect x="56" y="84" width="4" height="4" fill="#5a7c1f"/>
  <rect x="60" y="84" width="4" height="4" fill="#5a7c1f"/>
  <rect x="64" y="84" width="4" height="4" fill="#5a7c1f"/>
  <rect x="68" y="84" width="4" height="4" fill="#5a7c1f"/>
  <rect x="72" y="84" width="4" height="4" fill="#5a7c1f"/>
  <rect x="36" y="88" width="4" height="4" fill="#5a7c1f"/>
  <rect x="40" y="88" width="4" height="4" fill="#5a7c1f"/>
  <rect x="44" y="88" width="4" height="4" fill="#5a7c1f"/>
  <rect x="48" y="88" width="4" height="4" fill="#5a7c1f"/>
  <rect x="52" y="88" width="4" height="4" fill="#5a7c1f"/>
  <rect x="56" y="88" width="4" height="4" fill="#5a7c1f"/>
  <rect x="60" y="88" width="4" height="4" fill="#5a7c1f"/>
  <rect x="64" y="88" width="4" height="4" fill="#5a7c1f"/>
  <rect x="68" y="88" width="4" height="4" fill="#5a7c1f"/>
  <rect x="72" y="88" width="4" height="4" fill="#5a7c1f"/>
  <rect x="76" y="88" width="4" height="4" fill="#5a7c1f"/>
  <rect x="80" y="88" width="4" height="4" fill="#5a7c1f"/>
  <rect x="84" y="88" width="4" height="4" fill="#5a7c1f"/>
  <rect x="88" y="88" width="4" height="4" fill="#5a7c1f"/>
  <rect x="36" y="92" width="4" height="4" fill="#5a7c1f"/>
  <rect x="40" y="92" width="4" height="4" fill="#5a7c1f"/>
  <rect x="44" y="92" width="4" height="4" fill="#5a7c1f"/>
  <rect x="48" y="92" width="4" height="4" fill="#5a7c1f"/>
  <rect x="52" y="92" width="4" height="4" fill="#5a7c1f"/>
  <rect x="56" y="92" width="4" height="4" fill="#5a7c1f"/>
  <rect x="60" y="92" width="4" height="4" fill="#5a7c1f"/>
  <rect x="64" y="92" width="4" height="4" fill="#5a7c1f"/>
  <rect x="68" y="92" width="4" height="4" fill="#5a7c1f"/>
  <rect x="72" y="92" width="4" height="4" fill="#5a7c1f"/>
  <rect x="76" y="92" width="4" height="4" fill="#5a7c1f"/>
  <rect x="80" y="92" width="4" height="4" fill="#5a7c1f"/>
  <rect x="84" y="92" width="4" height="4" fill="#5a7c1f"/>
  <rect x="88" y="92" width="4" height="4" fill="#5a7c1f"/>
  <rect x="36" y="96" width="4" height="4" fill="#5a7c1f"/>
  <rect x="40" y="96" width="4" height="4" fill="#5a7c1f"/>
  <rect x="44" y="96" width="4" height="4" fill="#5a7c1f"/>
  <rect x="48" y="96" width="4" height="4" fill="#5a7c1f"/>
  <rect x="52" y="96" width="4" height="4" fill="#5a7c1f"/>
  <rect x="56" y="96" width="4" height="4" fill="#5a7c1f"/>
  <rect x="60" y="96" width="4" height="4" fill="#5a7c1f"/>
  <rect x="64" y="96" width="4" height="4" fill="#5a7c1f"/>
  <rect x="68" y="96" width="4" height="4" fill="#5a7c1f"/>
  <rect x="72" y="96" width="4" height="4" fill="#5a7c1f"/>
  <rect x="76" y="96" width="4" height="4" fill="#5a7c1f"/>
  <rect x="80" y="96" width="4" height="4" fill="#5a7c1f"/>
  <rect x="84" y="96" width="4" height="4" fill="#5a7c1f"/>
  <rect x="88" y="96" width="4" height="4" fill="#5a7c1f"/>
  <rect x="36" y="100" width="4" height="4" fill="#5a7c1f"/>
  <rect x="40" y="100" width="4" height="4" fill="#5a7c1f"/>
  <rect x="44" y="100" width="4" height="4" fill="#5a7c1f"/>
  <rect x="48" y="100" width="4" height="4" fill="#5a7c1f"/>
  <rect x="52" y="100" width="4" height="4" fill="#5a7c1f"/>
  <rect x="56" y="100" width="4" height="4" fill="#5a7c1f"/>
  <rect x="60" y="100" width="4" height="4" fill="#5a7c1f"/>
  <rect x="64" y="100" width="4" height="4" fill="#5a7c1f"/>
  <rect x="68" y="100" width="4" height="4" fill="#5a7c1f"/>
  <rect x="72" y="100" width="4" height="4" fill="#5a7c1f"/>
  <rect x="76" y="100" width="4" height="4" fill="#5a7c1f"/>
  <rect x="80" y="100" width="4" height="4" fill="#5a7c1f"/>
  <rect x="84" y="100" width="4" height="4" fill="#5a7c1f"/>
  <rect x="88" y="100" width="4" height="4" fill="#5a7c1f"/>
  <rect x="52" y="104" width="4" height="4" fill="#4a4f7a"/>
  <rect x="56" y="104" width="4" height="4" fill="#4a4f7a"/>
  <rect x="68" y="104" width="4" height="4" fill="#4a4f7a"/>
  <rect x="72" y="104" width="4" height="4" fill="#4a4f7a"/>
  <rect x="52" y="108" width="4" height="4" fill="#4a4f7a"/>
  <rect x="56" y="108" width="4" height="4" fill="#4a4f7a"/>
  <rect x="68" y="108" width="4" height="4" fill="#4a4f7a"/>
  <rect x="72" y="108" width="4" height="4" fill="#4a4f7a"/>
  <rect x="52" y="112" width="4" height="4" fill="#4a4f7a"/>
  <rect x="56" y="112" width="4" height="4" fill="#4a4f7a"/>
  <rect x="68" y="112" width="4" height="4" fill="#4a4f7a"/>
  <rect x="72" y="112" width="4" height="4" fill="#4a4f7a"/>
  <rect x="52" y="116" width="4" height="4" fill="#4a4f7a"/>
  <rect x="56" y="116" width="4" height="4" fill="#4a4f7a"/>
  <rect x="68" y="116" width="4" height="4" fill="#4a4f7a"/>
  <rect x="72" y="116" width="4" height="4" fill="#4a4f7a"/>
</svg>
